<svg xmlns="http://www.w3.org/2000/svg" fill="none" viewBox="0 0 240 180"><circle cx="120" cy="90" r="82" fill="#CAFFBF"/><rect width="148" height="104" x="46" y="38" fill="#fff" rx="16"/><circle cx="102" cy="56" r="13" fill="#FFD6A5"/><path fill="none" stroke="#13B7DA" stroke-linecap="round" stroke-linejoin="round" stroke-width="5" d="M95 70 L95 98 L116 98"/><path fill="none" stroke="#13B7DA" stroke-linecap="round" stroke-linejoin="round" stroke-width="5" d="M95 70 L108 70 L108 86"/><circle cx="95" cy="112" r="11" fill="none" stroke="#13B7DA" stroke-width="4"/><circle cx="116" cy="112" r="14" fill="none" stroke="#13B7DA" stroke-width="4"/><circle cx="116" cy="112" r="4" fill="#13B7DA"/><path stroke="#0F172A" stroke-linecap="round" stroke-width="2.5" d="M163 90 L180 90"/><path fill="none" stroke="#0F172A" stroke-linecap="round" stroke-linejoin="round" stroke-width="2.5" d="M173 83 L180 90 L173 97"/><circle cx="196" cy="90" r="12" fill="#13B7DA"/><path fill="none" stroke="#fff" stroke-linecap="round" stroke-linejoin="round" stroke-width="2.5" d="M191 90 L194 93.5 L202 84"/><circle cx="130" cy="90" r="3" fill="#13B7DA" opacity=".5"/><circle cx="141" cy="90" r="3" fill="#13B7DA" opacity=".65"/><circle cx="152" cy="90" r="3" fill="#13B7DA" opacity=".8"/></svg>