<svg xmlns="http://www.w3.org/2000/svg" viewBox="0 0 320 240" fill="none">
  <circle cx="150" cy="120" r="90" fill="#D6F0F8"/>
  <!-- Center card -->
  <circle cx="118" cy="118" r="64" fill="white"/>
  <!-- Person head -->
  <circle cx="118" cy="62" r="13" fill="#FCD34D"/>
  <!-- Wheelchair frame -->
  <path d="M110 76 L110 108 L134 108" stroke="#13B7DA" stroke-width="5" stroke-linecap="round" stroke-linejoin="round" fill="none"/>
  <path d="M110 76 L126 76 L126 95" stroke="#13B7DA" stroke-width="5" stroke-linecap="round" stroke-linejoin="round" fill="none"/>
  <!-- Wheels -->
  <circle cx="110" cy="128" r="12" stroke="#13B7DA" stroke-width="4" fill="none"/>
  <circle cx="134" cy="128" r="16" stroke="#13B7DA" stroke-width="4" fill="none"/>
  <circle cx="134" cy="128" r="4" fill="#13B7DA"/>
  <!-- Route path -->
  <path d="M180 120 Q202 120 220 100 Q235 84 256 84" stroke="#13B7DA" stroke-width="3" stroke-dasharray="7,5" stroke-linecap="round" fill="none"/>
  <circle cx="256" cy="84" r="9" fill="#34D399" stroke="white" stroke-width="2"/>
  <path d="M252 84 L255 87 L261 79" stroke="white" stroke-width="2" stroke-linecap="round" stroke-linejoin="round" fill="none"/>
  <!-- Globe (multilingual) -->
  <circle cx="260" cy="170" r="24" fill="white" stroke="#13B7DA" stroke-width="2"/>
  <ellipse cx="260" cy="170" rx="11" ry="24" stroke="#13B7DA" stroke-width="1.5" fill="none"/>
  <line x1="236" y1="170" x2="284" y2="170" stroke="#13B7DA" stroke-width="1.5"/>
  <line x1="242" y1="158" x2="278" y2="158" stroke="#13B7DA" stroke-width="1"/>
  <line x1="242" y1="182" x2="278" y2="182" stroke="#13B7DA" stroke-width="1"/>
</svg>
