<svg xmlns="http://www.w3.org/2000/svg" fill="none" viewBox="0 0 480 360"><rect width="440" height="320" x="20" y="20" fill="#fff" rx="24"/><rect width="100" height="90" x="40" y="40" fill="#CAFFBF" rx="12"/><rect width="140" height="90" x="152" y="40" fill="#FDFFB6" rx="12"/><rect width="136" height="90" x="304" y="40" fill="#FFD6A5" rx="12"/><rect width="180" height="80" x="40" y="144" fill="#FFADAD" opacity=".5" rx="12"/><rect width="208" height="80" x="232" y="144" fill="#CAFFBF" opacity=".5" rx="12"/><rect width="400" height="80" x="40" y="238" fill="#FDFFB6" opacity=".5" rx="12"/><path stroke="#13B7DA" stroke-dasharray="12 7" stroke-linecap="round" stroke-linejoin="round" stroke-width="5" d="M90 318 L90 184 L320 184 L320 85"/><rect width="36" height="56" x="302" y="136" fill="#13B7DA" rx="8"/><path fill="none" stroke="#fff" stroke-linecap="round" stroke-linejoin="round" stroke-width="2.5" d="M312 158 L320 150 L328 158"/><path fill="none" stroke="#fff" stroke-linecap="round" stroke-linejoin="round" stroke-width="2.5" d="M312 170 L320 178 L328 170"/><circle cx="90" cy="318" r="14" fill="#FFD6A5" stroke="#fff" stroke-width="3"/><text x="84" y="323" fill="#0F172A" font-family="sans-serif" font-size="13" font-weight="bold">A</text><path fill="#13B7DA" d="M320 85 C320 68 334 58 348 58 C362 58 376 68 376 85 C376 100 348 118 348 118 Z"/><circle cx="348" cy="84" r="10" fill="#fff"/><circle cx="90" cy="255" r="14" fill="#FFD6A5"/><path fill="none" stroke="#13B7DA" stroke-linecap="round" stroke-linejoin="round" stroke-width="5" d="M84 270 L84 294 L102 294"/><path fill="none" stroke="#13B7DA" stroke-linecap="round" stroke-linejoin="round" stroke-width="5" d="M84 270 L96 270 L96 284"/><circle cx="84" cy="306" r="10" fill="none" stroke="#13B7DA" stroke-width="4"/><circle cx="102" cy="306" r="13" fill="none" stroke="#13B7DA" stroke-width="4"/><circle cx="102" cy="306" r="4" fill="#13B7DA"/><rect width="72" height="26" x="370" y="238" fill="#FDFFB6" rx="13"/><text x="380" y="255" fill="#854d0e" font-family="sans-serif" font-size="11" font-weight="bold">EN / AR</text><rect width="72" height="26" x="370" y="272" fill="#CAFFBF" rx="13"/><text x="383" y="289" fill="#166534" font-family="sans-serif" font-size="11" font-weight="bold">FR / ES</text><circle cx="430" cy="84" r="20" fill="#FFADAD"/><path fill="#fff" d="M422 80 Q422 72 430 72 Q438 72 438 80 L438 88 Q438 96 430 96 Q422 96 422 88 Z" opacity=".6"/><path fill="none" stroke="#fff" stroke-linecap="round" stroke-width="2" d="M415 82 Q412 90 415 98"/><path fill="none" stroke="#fff" stroke-linecap="round" stroke-width="2" d="M444 80 Q448 90 444 100"/></svg>