<svg xmlns="http://www.w3.org/2000/svg" fill="none" viewBox="0 0 320 240"><rect width="280" height="208" x="20" y="16" fill="#fff" rx="20"/><rect width="76" height="60" x="36" y="32" fill="#CAFFBF" rx="8"/><rect width="56" height="60" x="120" y="32" fill="#FDFFB6" rx="8"/><rect width="100" height="60" x="184" y="32" fill="#FFD6A5" rx="8"/><rect width="56" height="56" x="36" y="100" fill="#FFD6A5" rx="8"/><rect width="84" height="56" x="100" y="100" fill="#FFADAD" rx="8"/><rect width="92" height="56" x="192" y="100" fill="#CAFFBF" rx="8"/><ellipse cx="74" cy="60" fill="#13B7DA" opacity=".25" rx="30" ry="24"/><ellipse cx="74" cy="60" fill="#13B7DA" opacity=".45" rx="16" ry="13"/><ellipse cx="142" cy="128" fill="#FFADAD" opacity=".5" rx="36" ry="26"/><ellipse cx="142" cy="128" fill="#FFADAD" opacity=".7" rx="18" ry="14"/><ellipse cx="230" cy="52" fill="#FFD6A5" opacity=".55" rx="24" ry="18"/><ellipse cx="230" cy="52" fill="#FFD6A5" opacity=".8" rx="12" ry="10"/><circle cx="62" cy="56" r="5" fill="#13B7DA"/><circle cx="80" cy="63" r="4" fill="#13B7DA" opacity=".7"/><circle cx="93" cy="52" r="3" fill="#13B7DA" opacity=".45"/><circle cx="130" cy="130" r="5" fill="#FFADAD"/><circle cx="152" cy="122" r="4" fill="#FFADAD" opacity=".75"/><circle cx="143" cy="142" r="3" fill="#FFADAD" opacity=".5"/><circle cx="224" cy="48" r="5" fill="#FFD6A5"/><circle cx="238" cy="57" r="4" fill="#FFD6A5" opacity=".7"/><rect width="248" height="8" x="36" y="170" fill="url(#heatGrad)" rx="4"/><defs><linearGradient id="heatGrad" x1="36" x2="284" y1="0" y2="0" gradientUnits="userSpaceOnUse"><stop offset="0%" stop-color="#CAFFBF"/><stop offset="33%" stop-color="#FDFFB6"/><stop offset="66%" stop-color="#FFD6A5"/><stop offset="100%" stop-color="#FFADAD"/></linearGradient></defs><text x="36" y="196" fill="#94a3b8" font-family="sans-serif" font-size="9">Low</text><text x="265" y="196" fill="#94a3b8" font-family="sans-serif" font-size="9">High</text></svg>