<svg xmlns="http://www.w3.org/2000/svg" width="320" height="240" viewBox="0 0 320 240" fill="none">
  <rect x="8" y="8" width="304" height="224" rx="28" fill="#F8FAFC"/>
  <rect x="30" y="34" width="260" height="172" rx="16" fill="#FFFFFF"/>
  <rect x="48" y="56" width="82" height="12" rx="6" fill="#D8ECF4"/>
  <rect x="138" y="56" width="36" height="12" rx="6" fill="#13B7DA" fill-opacity="0.4"/>
  <path d="M50 178H272" stroke="#D8EAF2" stroke-width="4" stroke-linecap="round"/>
  <rect x="66" y="132" width="28" height="46" rx="8" fill="#13B7DA"/>
  <rect x="108" y="116" width="28" height="62" rx="8" fill="#13B7DA" fill-opacity="0.8"/>
  <rect x="150" y="96" width="28" height="82" rx="8" fill="#0B6B84"/>
  <rect x="192" y="108" width="28" height="70" rx="8" fill="#13B7DA" fill-opacity="0.68"/>
  <rect x="234" y="86" width="28" height="92" rx="8" fill="#0A0F1E"/>
  <path d="M66 108C87 103 112 90 129 91C151 92 163 104 187 100C214 96 235 69 262 62" stroke="#13B7DA" stroke-width="4" stroke-linecap="round"/>
  <circle cx="262" cy="62" r="6" fill="#13B7DA"/>
</svg>
