<svg xmlns="http://www.w3.org/2000/svg" viewBox="0 0 480 360" fill="none">
  <!-- Background dashboard -->
  <rect x="20" y="20" width="440" height="320" rx="24" fill="white"/>
  <!-- Header -->
  <rect x="20" y="20" width="440" height="52" rx="24" fill="#13B7DA"/>
  <rect x="20" y="52" width="440" height="20" fill="#13B7DA"/>
  <rect x="44" y="34" width="100" height="14" rx="7" fill="white" opacity="0.35"/>
  <rect x="390" y="32" width="52" height="18" rx="9" fill="#CAFFBF"/>
  <!-- Metric cards row -->
  <rect x="36" y="88" width="120" height="72" rx="12" fill="#CAFFBF"/>
  <rect x="172" y="88" width="120" height="72" rx="12" fill="#FDFFB6"/>
  <rect x="308" y="88" width="136" height="72" rx="12" fill="#FFD6A5"/>
  <!-- Card text placeholder -->
  <rect x="52" y="100" width="50" height="8" rx="4" fill="#166534" opacity="0.4"/>
  <rect x="52" y="118" width="80" height="20" rx="4" fill="#166534" opacity="0.25"/>
  <rect x="188" y="100" width="50" height="8" rx="4" fill="#854d0e" opacity="0.4"/>
  <rect x="188" y="118" width="80" height="20" rx="4" fill="#854d0e" opacity="0.25"/>
  <rect x="324" y="100" width="50" height="8" rx="4" fill="#9a3412" opacity="0.4"/>
  <rect x="324" y="118" width="80" height="20" rx="4" fill="#9a3412" opacity="0.25"/>
  <!-- Line chart area -->
  <rect x="36" y="178" width="260" height="140" rx="12" fill="#f8fafc"/>
  <polyline points="52,296 90,260 128,270 166,236 204,248 242,210 270,222" stroke="#13B7DA" stroke-width="3" stroke-linecap="round" stroke-linejoin="round" fill="none"/>
  <polygon points="52,296 90,260 128,270 166,236 204,248 242,210 270,222 270,308 52,308" fill="#13B7DA" opacity="0.08"/>
  <!-- Second line -->
  <polyline points="52,308 90,290 128,300 166,278 204,284 242,268 270,276" stroke="#FFADAD" stroke-width="2.5" stroke-linecap="round" stroke-linejoin="round" fill="none" stroke-dasharray="6,3"/>
  <!-- Dot highlights -->
  <circle cx="166" cy="236" r="5" fill="#13B7DA" stroke="white" stroke-width="2"/>
  <circle cx="242" cy="210" r="5" fill="#13B7DA" stroke="white" stroke-width="2"/>
  <!-- Bar chart on right -->
  <rect x="312" y="178" width="164" height="140" rx="12" fill="#f8fafc"/>
  <rect x="328" y="268" width="18" height="38" rx="4" fill="#CAFFBF"/>
  <rect x="354" y="248" width="18" height="58" rx="4" fill="#FDFFB6"/>
  <rect x="380" y="230" width="18" height="76" rx="4" fill="#FFD6A5"/>
  <rect x="406" y="210" width="18" height="96" rx="4" fill="#FFADAD"/>
  <rect x="432" y="194" width="18" height="112" rx="4" fill="#13B7DA"/>
</svg>
