<svg xmlns="http://www.w3.org/2000/svg" fill="none" viewBox="0 0 480 360"><rect width="440" height="320" x="20" y="20" fill="#fff" rx="24"/><rect width="440" height="52" x="20" y="20" fill="#13B7DA" rx="24"/><rect width="440" height="20" x="20" y="52" fill="#13B7DA"/><rect width="100" height="14" x="44" y="34" fill="#fff" opacity=".35" rx="7"/><rect width="52" height="18" x="390" y="32" fill="#CAFFBF" rx="9"/><rect width="120" height="72" x="36" y="88" fill="#CAFFBF" rx="12"/><rect width="120" height="72" x="172" y="88" fill="#FDFFB6" rx="12"/><rect width="136" height="72" x="308" y="88" fill="#FFD6A5" rx="12"/><rect width="50" height="8" x="52" y="100" fill="#166534" opacity=".4" rx="4"/><rect width="80" height="20" x="52" y="118" fill="#166534" opacity=".25" rx="4"/><rect width="50" height="8" x="188" y="100" fill="#854d0e" opacity=".4" rx="4"/><rect width="80" height="20" x="188" y="118" fill="#854d0e" opacity=".25" rx="4"/><rect width="50" height="8" x="324" y="100" fill="#9a3412" opacity=".4" rx="4"/><rect width="80" height="20" x="324" y="118" fill="#9a3412" opacity=".25" rx="4"/><rect width="260" height="140" x="36" y="178" fill="#f8fafc" rx="12"/><polyline fill="none" stroke="#13B7DA" stroke-linecap="round" stroke-linejoin="round" stroke-width="3" points="52 296 90 260 128 270 166 236 204 248 242 210 270 222"/><polygon fill="#13B7DA" points="52 296 90 260 128 270 166 236 204 248 242 210 270 222 270 308 52 308" opacity=".08"/><polyline fill="none" stroke="#FFADAD" stroke-dasharray="6 3" stroke-linecap="round" stroke-linejoin="round" stroke-width="2.5" points="52 308 90 290 128 300 166 278 204 284 242 268 270 276"/><circle cx="166" cy="236" r="5" fill="#13B7DA" stroke="#fff" stroke-width="2"/><circle cx="242" cy="210" r="5" fill="#13B7DA" stroke="#fff" stroke-width="2"/><rect width="164" height="140" x="312" y="178" fill="#f8fafc" rx="12"/><rect width="18" height="38" x="328" y="268" fill="#CAFFBF" rx="4"/><rect width="18" height="58" x="354" y="248" fill="#FDFFB6" rx="4"/><rect width="18" height="76" x="380" y="230" fill="#FFD6A5" rx="4"/><rect width="18" height="96" x="406" y="210" fill="#FFADAD" rx="4"/><rect width="18" height="112" x="432" y="194" fill="#13B7DA" rx="4"/></svg>