<svg xmlns="http://www.w3.org/2000/svg" width="560" height="480" fill="none" viewBox="0 0 560 480"><rect width="560" height="480" fill="#0D1628" rx="24"/><rect width="440" height="240" x="60" y="120" fill="#1E293B" opacity=".7" rx="12"/><rect width="440" height="240" x="60" y="120" fill="none" stroke="#334155" stroke-width="1.5" rx="12"/><rect width="2" height="240" x="210" y="120" fill="#334155" opacity=".8"/><rect width="2" height="240" x="350" y="120" fill="#334155" opacity=".8"/><rect width="440" height="2" x="60" y="230" fill="#334155" opacity=".8"/><text x="130" y="185" fill="#94A3B8" font-family="system-ui,sans-serif" font-size="9" text-anchor="middle">RECEPTION</text><text x="280" y="185" fill="#94A3B8" font-family="system-ui,sans-serif" font-size="9" text-anchor="middle">CORRIDOR</text><text x="420" y="185" fill="#94A3B8" font-family="system-ui,sans-serif" font-size="9" text-anchor="middle">OFFICE A</text><text x="130" y="300" fill="#94A3B8" font-family="system-ui,sans-serif" font-size="9" text-anchor="middle">WAITING</text><text x="420" y="300" fill="#94A3B8" font-family="system-ui,sans-serif" font-size="9" text-anchor="middle">OFFICE B</text><path fill="none" stroke="#13B7DA" stroke-dasharray="5 4" stroke-linecap="round" stroke-width="2.5" d="M 90 360 L 90 240 L 280 240 L 280 185"/><circle cx="90" cy="360" r="7" fill="#13B7DA" opacity=".3"/><circle cx="90" cy="360" r="4" fill="#13B7DA"/><circle cx="280" cy="175" r="14" fill="#13B7DA" opacity=".15"/><circle cx="280" cy="175" r="8" fill="#13B7DA"/><line x1="280" x2="280" y1="183" y2="192" stroke="#13B7DA" stroke-linecap="round" stroke-width="2.5"/><circle cx="90" cy="240" r="4" fill="#1E293B" stroke="#13B7DA" stroke-width="2"/><circle cx="280" cy="240" r="4" fill="#1E293B" stroke="#13B7DA" stroke-width="2"/><g filter="url(#card-shadow)"><rect width="200" height="80" x="300" y="310" fill="#1E293B" rx="14"/><rect width="200" height="80" x="300" y="310" fill="none" stroke="#334155" stroke-width="1" rx="14"/><circle cx="322" cy="333" r="10" fill="#13B7DA" opacity=".12"/><path fill="none" stroke="#13B7DA" stroke-linecap="round" stroke-linejoin="round" stroke-width="1.8" d="M317 333 L322 327 L327 333"/><line x1="322" x2="322" y1="327" y2="339" stroke="#13B7DA" stroke-linecap="round" stroke-width="1.8"/><text x="338" y="329" fill="#fff" font-family="system-ui,sans-serif" font-size="10" font-weight="600">Radiology — Floor 3</text><text x="338" y="343" fill="#64748B" font-family="system-ui,sans-serif" font-size="8.5">Turn left at the elevator</text><rect width="168" height="4" x="316" y="356" fill="#334155" rx="2"/><rect width="90" height="4" x="316" y="356" fill="#13B7DA" rx="2"/><text x="316" y="374" fill="#94A3B8" font-family="system-ui,sans-serif" font-size="8">~2 min walk · 140m</text><text x="466" y="374" fill="#13B7DA" font-family="system-ui,sans-serif" font-size="8" text-anchor="end">54%</text></g><g filter="url(#soft-shadow)"><rect width="220" height="48" x="60" y="38" fill="#1E293B" rx="12"/><rect width="220" height="48" x="60" y="38" fill="none" stroke="#334155" stroke-width="1" rx="12"/><circle cx="87" cy="62" r="10" fill="#162032"/><circle cx="85" cy="60" r="4" fill="none" stroke="#13B7DA" stroke-width="1.5"/><line x1="88" x2="91" y1="63" y2="66" stroke="#13B7DA" stroke-linecap="round" stroke-width="1.5"/><text x="104" y="58" fill="#fff" font-family="system-ui,sans-serif" font-size="10" font-weight="500">Search your destination</text><text x="104" y="72" fill="#94A3B8" font-family="system-ui,sans-serif" font-size="8.5">Any room, office, service…</text></g><g filter="url(#soft-shadow)"><rect width="126" height="48" x="390" y="38" fill="#0A0F1E" rx="12"/><circle cx="414" cy="62" r="10" fill="#13B7DA" opacity=".2"/><circle cx="414" cy="55" r="3" fill="#13B7DA"/><path fill="none" stroke="#13B7DA" stroke-linecap="round" stroke-linejoin="round" stroke-width="1.5" d="M412 59 L412 67 L418 67"/><circle cx="414" cy="70" r="3" fill="none" stroke="#13B7DA" stroke-width="1.5"/><text x="430" y="58" fill="#fff" font-family="system-ui,sans-serif" font-size="9" font-weight="600">Accessible</text><text x="430" y="71" fill="#94A3B8" font-family="system-ui,sans-serif" font-size="8">Route enabled</text></g><circle cx="130" cy="240" r="5" fill="#13B7DA" opacity=".4"/><circle cx="130" cy="240" r="3" fill="#13B7DA" opacity=".8"/><circle cx="200" cy="240" r="5" fill="#13B7DA" opacity=".25"/><circle cx="200" cy="240" r="3" fill="#13B7DA" opacity=".5"/></svg>