<svg xmlns="http://www.w3.org/2000/svg" width="320" height="240" viewBox="0 0 320 240" fill="none">
  <rect x="8" y="8" width="304" height="224" rx="28" fill="#0D1628"/>
  <rect x="34" y="34" width="252" height="172" rx="18" fill="#1E293B"/>
  <path d="M58 66H262" stroke="#D7EAF1" stroke-width="6" stroke-linecap="round"/>
  <path d="M58 101H242" stroke="#E3EFF4" stroke-width="6" stroke-linecap="round"/>
  <path d="M58 136H220" stroke="#E3EFF4" stroke-width="6" stroke-linecap="round"/>
  <path d="M78 176C109 166 123 153 145 136C170 117 196 104 242 76" stroke="#13B7DA" stroke-width="7" stroke-linecap="round"/>
  <circle cx="78" cy="176" r="9" fill="#13B7DA"/>
  <circle cx="145" cy="136" r="9" fill="#0B6B84"/>
  <path d="M242 62C231 62 222 71 222 82C222 96 236 109 240 113C241 114 243 114 244 113C248 109 262 96 262 82C262 71 253 62 242 62Z" fill="#0A0F1E"/>
  <circle cx="242" cy="82" r="6" fill="#13B7DA"/>
  <rect x="180" y="182" width="106" height="22" rx="11" fill="#0A0F1E" fill-opacity="0.08"/>
  <rect x="190" y="188" width="52" height="10" rx="5" fill="#13B7DA" fill-opacity="0.38"/>
</svg>
