<svg xmlns="http://www.w3.org/2000/svg" fill="none" viewBox="0 0 480 360"><rect width="260" height="320" x="20" y="20" fill="#fff" rx="24"/><rect width="90" height="80" x="40" y="40" fill="#CAFFBF" rx="10"/><rect width="120" height="80" x="140" y="40" fill="#FDFFB6" rx="10"/><rect width="220" height="50" x="40" y="132" fill="#FFD6A5" opacity=".6" rx="10"/><rect width="90" height="80" x="40" y="194" fill="#FFADAD" opacity=".55" rx="10"/><rect width="120" height="80" x="140" y="194" fill="#CAFFBF" opacity=".6" rx="10"/><rect width="220" height="34" x="40" y="286" fill="#FDFFB6" opacity=".5" rx="10"/><path stroke="#13B7DA" stroke-dasharray="10 6" stroke-linecap="round" stroke-linejoin="round" stroke-width="4" d="M80 320 L80 157 L200 157 L200 80"/><circle cx="80" cy="320" r="12" fill="#FFD6A5" stroke="#fff" stroke-width="3"/><text x="75" y="325" fill="#0F172A" font-family="sans-serif" font-size="12" font-weight="bold">A</text><path fill="#13B7DA" d="M200 80 C200 62 214 52 228 52 C242 52 256 62 256 80 C256 96 228 116 228 116 Z"/><circle cx="228" cy="79" r="10" fill="#fff"/><circle cx="390" cy="120" r="50" fill="#FFD6A5" opacity=".3"/><circle cx="390" cy="102" r="24" fill="#FFD6A5"/><path fill="#FFD6A5" d="M364 166 Q364 142 390 142 Q416 142 416 166"/><rect width="30" height="46" x="406" y="112" fill="#fff" rx="8"/><rect width="22" height="34" x="410" y="117" fill="#13B7DA" opacity=".1" rx="5"/><rect width="8" height="8" x="412" y="120" fill="#CAFFBF" rx="2"/><rect width="8" height="8" x="422" y="120" fill="#FDFFB6" rx="2"/><rect width="18" height="6" x="412" y="130" fill="#FFD6A5" rx="2"/><circle cx="416" cy="143" r="4" fill="#13B7DA"/><path fill="none" stroke="#fff" stroke-linecap="round" stroke-linejoin="round" stroke-width="1.5" d="M413 143 L415 145 L420 138"/><circle cx="440" cy="90" r="18" fill="#CAFFBF"/><path fill="none" stroke="#166534" stroke-linecap="round" stroke-linejoin="round" stroke-width="2.5" d="M433 90 L437 94 L448 82"/></svg>