<svg xmlns="http://www.w3.org/2000/svg" fill="none" viewBox="0 0 320 200"><rect width="320" height="200" fill="#CAFFBF"/><rect width="148" height="164" x="22" y="18" fill="#fff" rx="16"/><rect width="50" height="46" x="36" y="32" fill="#FDFFB6" rx="6"/><rect width="62" height="46" x="92" y="32" fill="#FFD6A5" rx="6"/><rect width="118" height="30" x="36" y="84" fill="#CAFFBF" opacity=".6" rx="6"/><rect width="50" height="46" x="36" y="120" fill="#FFADAD" opacity=".5" rx="6"/><rect width="62" height="46" x="92" y="120" fill="#FDFFB6" rx="6"/><path stroke="#13B7DA" stroke-dasharray="8 5" stroke-linecap="round" stroke-linejoin="round" stroke-width="3" d="M60 166 L60 99 L154 99 L154 55"/><circle cx="60" cy="166" r="8" fill="#FFD6A5" stroke="#fff" stroke-width="2.5"/><path fill="#13B7DA" d="M154 55 C154 43 164 35 176 35 C188 35 198 43 198 55 C198 67 176 82 176 82 Z"/><circle cx="176" cy="54" r="7" fill="#fff"/><circle cx="268" cy="72" r="34" fill="#FFD6A5" opacity=".4"/><circle cx="268" cy="60" r="16" fill="#FFD6A5"/><path fill="#FFD6A5" d="M250 102 Q250 86 268 86 Q286 86 286 102"/><rect width="22" height="34" x="278" y="70" fill="#fff" rx="6"/><rect width="16" height="22" x="281" y="74" fill="#13B7DA" opacity=".12" rx="3"/><rect width="6" height="6" x="283" y="76" fill="#CAFFBF" rx="1"/><rect width="6" height="6" x="291" y="76" fill="#FDFFB6" rx="1"/><rect width="14" height="4" x="283" y="84" fill="#FFD6A5" rx="2"/><circle cx="286" cy="92" r="2.5" fill="#13B7DA"/><rect width="100" height="44" x="200" y="140" fill="#fff" rx="12"/><text x="215" y="158" fill="#94a3b8" font-family="sans-serif" font-size="10">Steps taken</text><text x="215" y="174" fill="#0F172A" font-family="sans-serif" font-size="13" font-weight="bold">247 / 280m</text></svg>