<svg xmlns="http://www.w3.org/2000/svg" fill="none" viewBox="0 0 320 200"><rect width="320" height="200" fill="#FFD6A5"/><rect width="168" height="168" x="24" y="16" fill="#fff" rx="16"/><rect width="168" height="44" x="24" y="16" fill="#13B7DA" rx="16"/><rect width="168" height="16" x="24" y="44" fill="#13B7DA"/><rect width="10" height="40" x="44" y="20" fill="#fff" opacity=".2" rx="2"/><rect width="10" height="40" x="70" y="20" fill="#fff" opacity=".2" rx="2"/><rect width="10" height="40" x="96" y="20" fill="#fff" opacity=".2" rx="2"/><rect width="10" height="40" x="122" y="20" fill="#fff" opacity=".2" rx="2"/><rect width="10" height="40" x="148" y="20" fill="#fff" opacity=".2" rx="2"/><rect width="72" height="60" x="42" y="72" fill="#FDFFB6" rx="8"/><circle cx="62" cy="98" r="12" fill="#FFADAD"/><circle cx="86" cy="92" r="10" fill="#CAFFBF"/><circle cx="100" cy="104" r="8" fill="#FFD6A5"/><rect width="48" height="48" x="126" y="92" fill="#f1f5f9" rx="6"/><circle cx="166" cy="118" r="3" fill="#cbd5e1"/><rect width="132" height="24" x="42" y="148" fill="#CAFFBF" rx="6"/><rect width="100" height="168" x="206" y="16" fill="#fff" rx="16"/><text x="216" y="38" fill="#64748b" font-family="sans-serif" font-size="9" font-weight="bold">FOOTFALL TODAY</text><text x="216" y="58" fill="#0F172A" font-family="sans-serif" font-size="22" font-weight="bold">1,248</text><rect width="12" height="30" x="216" y="130" fill="#CAFFBF" rx="3"/><rect width="12" height="42" x="232" y="118" fill="#FDFFB6" rx="3"/><rect width="12" height="52" x="248" y="108" fill="#FFD6A5" rx="3"/><rect width="12" height="64" x="264" y="96" fill="#FFADAD" rx="3"/><rect width="12" height="74" x="280" y="86" fill="#13B7DA" rx="3"/><path stroke="#13B7DA" stroke-linecap="round" stroke-width="2.5" d="M216 76 L260 62"/><path fill="none" stroke="#13B7DA" stroke-linecap="round" stroke-linejoin="round" stroke-width="2.5" d="M252 58 L260 62 L257 70"/></svg>