<svg xmlns="http://www.w3.org/2000/svg" viewBox="0 0 320 200" fill="none">
  <!-- Background -->
  <rect width="320" height="200" fill="#13B7DA"/>
  <!-- Dashboard shell -->
  <rect x="18" y="14" width="284" height="172" rx="16" fill="white" opacity="0.12"/>
  <!-- Header bar -->
  <rect x="18" y="14" width="284" height="36" rx="16" fill="white" opacity="0.18"/>
  <rect x="18" y="34" width="284" height="16" fill="white" opacity="0.18"/>
  <circle cx="36" cy="32" r="5" fill="white" opacity="0.5"/>
  <rect x="46" y="28" width="60" height="8" rx="4" fill="white" opacity="0.3"/>
  <rect x="246" y="26" width="44" height="12" rx="6" fill="#CAFFBF"/>
  <!-- Heatmap grid -->
  <rect x="28" y="58" width="56" height="40" rx="6" fill="#CAFFBF" opacity="0.7"/>
  <rect x="90" y="58" width="56" height="40" rx="6" fill="#FDFFB6" opacity="0.7"/>
  <rect x="152" y="58" width="56" height="40" rx="6" fill="#FFD6A5" opacity="0.8"/>
  <rect x="214" y="58" width="72" height="40" rx="6" fill="#FFADAD" opacity="0.85"/>
  <rect x="28" y="104" width="72" height="40" rx="6" fill="#FDFFB6" opacity="0.7"/>
  <rect x="106" y="104" width="56" height="40" rx="6" fill="#FFADAD" opacity="0.75"/>
  <rect x="168" y="104" width="56" height="40" rx="6" fill="#FFD6A5" opacity="0.7"/>
  <rect x="230" y="104" width="56" height="40" rx="6" fill="#CAFFBF" opacity="0.7"/>
  <!-- Heat dots overlay -->
  <circle cx="238" cy="78" r="22" fill="#FFADAD" opacity="0.4"/>
  <circle cx="238" cy="78" r="12" fill="#FFADAD" opacity="0.5"/>
  <circle cx="122" cy="124" r="18" fill="#FFD6A5" opacity="0.4"/>
  <circle cx="122" cy="124" r="9" fill="#FFD6A5" opacity="0.55"/>
  <!-- Stats row -->
  <rect x="28" y="152" width="76" height="26" rx="8" fill="white" opacity="0.2"/>
  <rect x="112" y="152" width="76" height="26" rx="8" fill="white" opacity="0.2"/>
  <rect x="196" y="152" width="90" height="26" rx="8" fill="white" opacity="0.2"/>
  <rect x="28" y="152" width="44" height="26" rx="8" fill="#CAFFBF"/>
</svg>
