<svg xmlns="http://www.w3.org/2000/svg" viewBox="0 0 320 200" fill="none">
  <circle cx="148" cy="100" r="88" fill="#D6F0F8"/>
  <!-- Store card -->
  <rect x="48" y="44" width="164" height="130" rx="14" fill="white"/>
  <!-- Awning -->
  <rect x="48" y="44" width="164" height="34" rx="14" fill="#13B7DA"/>
  <rect x="48" y="62" width="164" height="16" fill="#13B7DA"/>
  <rect x="60" y="44" width="8" height="34" fill="white" opacity="0.2"/>
  <rect x="84" y="44" width="8" height="34" fill="white" opacity="0.2"/>
  <rect x="108" y="44" width="8" height="34" fill="white" opacity="0.2"/>
  <rect x="132" y="44" width="8" height="34" fill="white" opacity="0.2"/>
  <rect x="156" y="44" width="8" height="34" fill="white" opacity="0.2"/>
  <!-- Store window -->
  <rect x="64" y="88" width="58" height="52" rx="4" fill="#E2F4F8"/>
  <rect x="76" y="100" width="22" height="28" rx="3" fill="#13B7DA" opacity="0.35"/>
  <circle cx="87" cy="97" r="6" fill="#13B7DA" opacity="0.25"/>
  <!-- Door -->
  <rect x="134" y="106" width="32" height="34" rx="4" fill="#F1F5F9"/>
  <circle cx="162" cy="123" r="2.5" fill="#CBD5E1"/>
  <!-- Traffic arrows right side -->
  <path d="M230 76 L242 76" stroke="#34D399" stroke-width="2.5" stroke-linecap="round"/>
  <path d="M237 70 L243 76 L237 82" stroke="#34D399" stroke-width="2.5" stroke-linecap="round" stroke-linejoin="round" fill="none"/>
  <circle cx="222" cy="76" r="7" fill="#34D399" opacity="0.2"/>
  <path d="M230 100 L242 100" stroke="#13B7DA" stroke-width="2.5" stroke-linecap="round"/>
  <path d="M237 94 L243 100 L237 106" stroke="#13B7DA" stroke-width="2.5" stroke-linecap="round" stroke-linejoin="round" fill="none"/>
  <circle cx="222" cy="100" r="7" fill="#13B7DA" opacity="0.2"/>
  <path d="M230 124 L242 124" stroke="#FCD34D" stroke-width="2.5" stroke-linecap="round"/>
  <path d="M237 118 L243 124 L237 130" stroke="#FCD34D" stroke-width="2.5" stroke-linecap="round" stroke-linejoin="round" fill="none"/>
  <circle cx="222" cy="124" r="7" fill="#FCD34D" opacity="0.3"/>
  <!-- Revenue badge -->
  <rect x="216" y="148" width="72" height="26" rx="13" fill="#34D399"/>
  <rect x="230" y="156" width="40" height="5" rx="2.5" fill="white" opacity="0.9"/>
  <rect x="236" y="164" width="28" height="4" rx="2" fill="white" opacity="0.6"/>
</svg>
