<svg xmlns="http://www.w3.org/2000/svg" viewBox="0 0 320 200" fill="none">
  <circle cx="160" cy="100" r="85" fill="#D6F0F8"/>
  <!-- Person -->
  <circle cx="108" cy="88" r="32" fill="#FCD34D"/>
  <circle cx="108" cy="78" r="16" fill="#FB7185"/>
  <path d="M91 122 Q91 107 108 107 Q125 107 125 122" fill="#FB7185"/>
  <!-- Phone in hand -->
  <rect x="122" y="88" width="22" height="34" rx="5" fill="white"/>
  <rect x="125" y="92" width="16" height="22" rx="3" fill="#E2F4F8"/>
  <path d="M127 106 L131 102 L135 104 L139 100" stroke="#13B7DA" stroke-width="1.5" fill="none" stroke-linecap="round" stroke-linejoin="round"/>
  <circle cx="127" cy="106" r="2" fill="#FCD34D"/>
  <circle cx="139" cy="100" r="2.5" fill="#13B7DA"/>
  <!-- Destination pin -->
  <path d="M218 66 C218 52 228 44 238 44 C248 44 258 52 258 66 C258 78 248 88 238 100 Z" fill="#13B7DA"/>
  <circle cx="238" cy="65" r="7" fill="white"/>
  <!-- Route path -->
  <path d="M150 110 Q180 110 200 90 Q212 78 218 72" stroke="#13B7DA" stroke-width="2.5" stroke-dasharray="6,4" stroke-linecap="round" fill="none"/>
  <!-- Speed badge -->
  <rect x="210" y="132" width="72" height="30" rx="15" fill="#34D399"/>
  <circle cx="226" cy="147" r="8" fill="white"/>
  <path d="M222 147 L225 150 L230 143" stroke="#34D399" stroke-width="1.5" stroke-linecap="round" stroke-linejoin="round" fill="none"/>
  <rect x="240" y="141" width="32" height="6" rx="3" fill="white" opacity="0.8"/>
  <rect x="240" y="151" width="24" height="5" rx="2.5" fill="white" opacity="0.6"/>
</svg>
