<svg xmlns="http://www.w3.org/2000/svg" width="320" height="200" viewBox="0 0 320 200" fill="none">
  <!-- Background -->
  <rect width="320" height="200" rx="16" fill="#F8FAFC"/>

  <!-- Person silhouette (standing) -->
  <circle cx="100" cy="68" r="16" fill="#E2E8F0"/>
  <circle cx="100" cy="60" r="10" fill="#CBD5E1"/>
  <path d="M80 112 Q80 88 100 88 Q120 88 120 112" fill="#CBD5E1"/>

  <!-- Phone in hand -->
  <rect x="118" y="90" width="22" height="34" rx="4" fill="white" stroke="#CBD5E1" stroke-width="1.5"/>
  <rect x="121" y="94" width="16" height="22" rx="2" fill="#F1F5F9"/>
  <!-- Mini map on phone -->
  <line x1="121" y1="102" x2="137" y2="102" stroke="#E2E8F0" stroke-width="0.8"/>
  <path d="M123 112 L123 104 L130 104" stroke="#13B7DA" stroke-width="1.5" stroke-dasharray="2,1.5" fill="none" stroke-linecap="round"/>
  <circle cx="123" cy="112" r="2" fill="#13B7DA"/>
  <circle cx="130" cy="104" r="2.5" fill="#0A0F1E"/>

  <!-- Navigation arrows floating -->
  <rect x="152" y="72" width="36" height="20" rx="10" fill="#13B7DA"/>
  <text x="170" y="86" font-family="system-ui,sans-serif" font-size="10" fill="white" text-anchor="middle">→</text>

  <rect x="154" y="100" width="36" height="20" rx="10" fill="white" stroke="#E2E8F0" stroke-width="1"/>
  <text x="172" y="114" font-family="system-ui,sans-serif" font-size="9" fill="#64748B" text-anchor="middle">60s</text>

  <!-- Destination pin -->
  <circle cx="232" cy="80" r="20" fill="#F1F5F9"/>
  <path d="M232 62C224 62 218 68 218 76C218 86 230 97 231 98C231.5 98.5 232.5 98.5 233 98C234 97 246 86 246 76C246 68 240 62 232 62Z" fill="#0A0F1E"/>
  <circle cx="232" cy="76" r="5" fill="#13B7DA"/>

  <!-- Ground line -->
  <line x1="60" y1="140" x2="270" y2="140" stroke="#E2E8F0" stroke-width="1"/>

  <!-- Confidence label -->
  <rect x="60" y="152" width="200" height="22" rx="11" fill="white" stroke="#E2E8F0" stroke-width="1"/>
  <text x="160" y="167" font-family="system-ui,sans-serif" font-size="9" fill="#64748B" text-anchor="middle" font-weight="500">Finds destination in under 60 seconds</text>
</svg>
