<svg xmlns="http://www.w3.org/2000/svg" viewBox="0 0 320 200" fill="none">
  <circle cx="160" cy="95" r="85" fill="#D6F0F8"/>
  <!-- Monitor frame -->
  <rect x="44" y="28" width="232" height="144" rx="16" fill="white"/>
  <rect x="44" y="28" width="232" height="36" rx="16" fill="#F1F5F9"/>
  <rect x="44" y="48" width="232" height="16" fill="#F1F5F9"/>
  <circle cx="64" cy="46" r="5" fill="#FB7185"/>
  <circle cx="82" cy="46" r="5" fill="#FCD34D"/>
  <circle cx="100" cy="46" r="5" fill="#34D399"/>
  <!-- Floor grid inside monitor -->
  <rect x="60" y="76" width="70" height="52" rx="4" fill="#F8FBFD"/>
  <rect x="138" y="76" width="52" height="52" rx="4" fill="#F8FBFD"/>
  <rect x="198" y="76" width="62" height="52" rx="4" fill="#F8FBFD"/>
  <rect x="60" y="136" width="56" height="24" rx="4" fill="#F8FBFD"/>
  <rect x="124" y="136" width="76" height="24" rx="4" fill="#F8FBFD"/>
  <rect x="208" y="136" width="52" height="24" rx="4" fill="#F8FBFD"/>
  <!-- Heatmap zones -->
  <ellipse cx="95" cy="100" rx="35" ry="26" fill="#13B7DA" opacity="0.2"/>
  <ellipse cx="95" cy="100" rx="18" ry="13" fill="#13B7DA" opacity="0.4"/>
  <ellipse cx="162" cy="150" rx="38" ry="14" fill="#FCD34D" opacity="0.3"/>
  <ellipse cx="229" cy="92" rx="30" ry="22" fill="#FB7185" opacity="0.2"/>
  <ellipse cx="229" cy="92" rx="14" ry="11" fill="#FB7185" opacity="0.38"/>
  <!-- Monitor stand -->
  <rect x="148" y="172" width="24" height="6" rx="3" fill="#E2E8F0"/>
  <rect x="136" y="178" width="48" height="6" rx="3" fill="#E2E8F0"/>
</svg>
