<svg xmlns="http://www.w3.org/2000/svg" fill="none" viewBox="0 0 320 200"><rect width="320" height="200" fill="#13B7DA"/><rect width="284" height="172" x="18" y="14" fill="#fff" opacity=".12" rx="16"/><rect width="284" height="36" x="18" y="14" fill="#fff" opacity=".18" rx="16"/><rect width="284" height="16" x="18" y="34" fill="#fff" opacity=".18"/><circle cx="36" cy="32" r="5" fill="#fff" opacity=".5"/><rect width="60" height="8" x="46" y="28" fill="#fff" opacity=".3" rx="4"/><rect width="44" height="12" x="246" y="26" fill="#CAFFBF" rx="6"/><rect width="56" height="40" x="28" y="58" fill="#CAFFBF" opacity=".7" rx="6"/><rect width="56" height="40" x="90" y="58" fill="#FDFFB6" opacity=".7" rx="6"/><rect width="56" height="40" x="152" y="58" fill="#FFD6A5" opacity=".8" rx="6"/><rect width="72" height="40" x="214" y="58" fill="#FFADAD" opacity=".85" rx="6"/><rect width="72" height="40" x="28" y="104" fill="#FDFFB6" opacity=".7" rx="6"/><rect width="56" height="40" x="106" y="104" fill="#FFADAD" opacity=".75" rx="6"/><rect width="56" height="40" x="168" y="104" fill="#FFD6A5" opacity=".7" rx="6"/><rect width="56" height="40" x="230" y="104" fill="#CAFFBF" opacity=".7" rx="6"/><circle cx="238" cy="78" r="22" fill="#FFADAD" opacity=".4"/><circle cx="238" cy="78" r="12" fill="#FFADAD" opacity=".5"/><circle cx="122" cy="124" r="18" fill="#FFD6A5" opacity=".4"/><circle cx="122" cy="124" r="9" fill="#FFD6A5" opacity=".55"/><rect width="76" height="26" x="28" y="152" fill="#fff" opacity=".2" rx="8"/><rect width="76" height="26" x="112" y="152" fill="#fff" opacity=".2" rx="8"/><rect width="90" height="26" x="196" y="152" fill="#fff" opacity=".2" rx="8"/><rect width="44" height="26" x="28" y="152" fill="#CAFFBF" rx="8"/></svg>