<svg xmlns="http://www.w3.org/2000/svg" viewBox="0 0 320 200" fill="none">
  <circle cx="160" cy="100" r="82" fill="#D6F0F8"/>
  <!-- Floor plan document -->
  <rect x="60" y="24" width="120" height="152" rx="12" fill="white"/>
  <!-- Page fold -->
  <path d="M160 24 L180 24 L180 44 Z" fill="#E2F4F8"/>
  <path d="M160 24 L160 44 L180 44" stroke="#D6F0F8" stroke-width="1.5" fill="none"/>
  <!-- Floor plan grid -->
  <rect x="74" y="40" width="38" height="30" rx="3" fill="#F1F5F9"/>
  <rect x="118" y="40" width="30" height="30" rx="3" fill="#E2F4F8"/>
  <rect x="74" y="76" width="74" height="18" rx="3" fill="#F1F5F9"/>
  <rect x="74" y="100" width="38" height="18" rx="3" fill="#E2F4F8"/>
  <rect x="118" y="100" width="30" height="18" rx="3" fill="#F1F5F9"/>
  <rect x="74" y="124" width="74" height="32" rx="3" fill="#F1F5F9"/>
  <!-- Highlighted room -->
  <rect x="74" y="76" width="74" height="18" rx="3" fill="#13B7DA" opacity="0.18"/>
  <!-- Upload circle -->
  <circle cx="238" cy="88" r="36" fill="#13B7DA" opacity="0.1"/>
  <circle cx="238" cy="88" r="26" fill="#13B7DA" opacity="0.15"/>
  <path d="M238 104 L238 74" stroke="#13B7DA" stroke-width="3" stroke-linecap="round"/>
  <path d="M228 83 L238 74 L248 83" stroke="#13B7DA" stroke-width="3" stroke-linecap="round" stroke-linejoin="round" fill="none"/>
  <line x1="226" y1="106" x2="250" y2="106" stroke="#13B7DA" stroke-width="3" stroke-linecap="round"/>
  <!-- Dotted path -->
  <path d="M180 88 Q208 88 212 88" stroke="#13B7DA" stroke-width="2" stroke-dasharray="5,4" stroke-linecap="round" fill="none"/>
  <!-- AI sparkle dots -->
  <circle cx="198" cy="142" r="4" fill="#FCD34D"/>
  <circle cx="212" cy="130" r="3" fill="#FCD34D" opacity="0.7"/>
  <circle cx="224" cy="144" r="2.5" fill="#FCD34D" opacity="0.5"/>
</svg>
