<svg xmlns="http://www.w3.org/2000/svg" viewBox="0 0 320 200" fill="none">
  <!-- Background -->
  <rect width="320" height="200" rx="0" fill="#FFD6A5"/>
  <!-- Document card -->
  <rect x="64" y="22" width="116" height="152" rx="14" fill="white"/>
  <!-- Page fold -->
  <path d="M160 22 L180 22 L180 42 Z" fill="#FFD6A5" opacity="0.6"/>
  <path d="M160 22 L160 42 L180 42" stroke="#FFD6A5" stroke-width="1.5" fill="none"/>
  <!-- Floor plan lines -->
  <rect x="78" y="38" width="38" height="28" rx="4" fill="#FDFFB6"/>
  <rect x="122" y="38" width="28" height="28" rx="4" fill="#CAFFBF"/>
  <rect x="78" y="72" width="72" height="14" rx="4" fill="#FDFFB6"/>
  <rect x="78" y="92" width="38" height="16" rx="4" fill="#CAFFBF"/>
  <rect x="122" y="92" width="28" height="16" rx="4" fill="#FDFFB6"/>
  <rect x="78" y="114" width="72" height="30" rx="4" fill="#FFADAD" opacity="0.5"/>
  <!-- Highlighted row -->
  <rect x="78" y="72" width="72" height="14" rx="4" fill="#13B7DA" opacity="0.2"/>
  <!-- Upload circle -->
  <circle cx="238" cy="88" r="38" fill="white" opacity="0.7"/>
  <circle cx="238" cy="88" r="28" fill="white"/>
  <path d="M238 104 L238 74" stroke="#13B7DA" stroke-width="3.5" stroke-linecap="round"/>
  <path d="M227 84 L238 74 L249 84" stroke="#13B7DA" stroke-width="3.5" stroke-linecap="round" stroke-linejoin="round" fill="none"/>
  <line x1="225" y1="106" x2="251" y2="106" stroke="#13B7DA" stroke-width="3.5" stroke-linecap="round"/>
  <!-- Connector -->
  <path d="M180 88 Q208 88 210 88" stroke="#13B7DA" stroke-width="2" stroke-dasharray="5,4" stroke-linecap="round" fill="none"/>
  <!-- Sparkles -->
  <circle cx="198" cy="148" r="5" fill="#CAFFBF"/>
  <circle cx="214" cy="136" r="4" fill="#CAFFBF" opacity="0.75"/>
  <circle cx="226" cy="150" r="3" fill="#CAFFBF" opacity="0.5"/>
</svg>
