<svg xmlns="http://www.w3.org/2000/svg" fill="none" viewBox="0 0 320 200"><rect width="320" height="200" fill="#FDFFB6"/><rect width="260" height="160" x="30" y="20" fill="#fff" rx="16"/><rect width="260" height="32" x="30" y="20" fill="#13B7DA" rx="16"/><rect width="260" height="16" x="30" y="36" fill="#13B7DA"/><circle cx="52" cy="36" r="6" fill="#fff" opacity=".4"/><circle cx="70" cy="36" r="6" fill="#fff" opacity=".4"/><circle cx="88" cy="36" r="6" fill="#fff" opacity=".4"/><rect width="80" height="10" x="46" y="64" fill="#e2e8f0" rx="5"/><rect width="48" height="10" x="46" y="64" fill="#13B7DA" rx="5"/><rect width="80" height="10" x="46" y="82" fill="#e2e8f0" rx="5"/><rect width="62" height="10" x="46" y="82" fill="#CAFFBF" rx="5"/><rect width="80" height="10" x="46" y="100" fill="#e2e8f0" rx="5"/><rect width="30" height="10" x="46" y="100" fill="#FFD6A5" rx="5"/><circle cx="172" cy="69" r="10" fill="#FFADAD"/><circle cx="194" cy="69" r="10" fill="#FFD6A5"/><circle cx="216" cy="69" r="10" fill="#FDFFB6"/><circle cx="238" cy="69" r="10" fill="#CAFFBF"/><circle cx="260" cy="69" r="10" fill="#13B7DA"/><circle cx="238" cy="69" r="12" fill="none" stroke="#0F172A" stroke-width="2"/><rect width="108" height="72" x="166" y="86" fill="#f8fafc" rx="10"/><rect width="36" height="28" x="178" y="96" fill="#CAFFBF" rx="4"/><rect width="42" height="28" x="220" y="96" fill="#FDFFB6" rx="4"/><rect width="84" height="20" x="178" y="130" fill="#FFD6A5" rx="4"/><path fill="none" stroke="#13B7DA" stroke-dasharray="5 3" stroke-linecap="round" stroke-linejoin="round" stroke-width="2.5" d="M196 132 L196 110 L228 110"/><circle cx="196" cy="132" r="5" fill="#13B7DA"/><circle cx="270" cy="152" r="14" fill="#CAFFBF"/><path fill="none" stroke="#166534" stroke-linecap="round" stroke-linejoin="round" stroke-width="2.5" d="M264 152 L268 156 L276 146"/></svg>