<svg xmlns="http://www.w3.org/2000/svg" width="320" height="200" viewBox="0 0 320 200" fill="none">
  <!-- Background -->
  <rect width="320" height="200" rx="16" fill="#0D1628"/>

  <!-- QR code block -->
  <rect x="52" y="44" width="88" height="88" rx="8" fill="#1E293B" stroke="#334155" stroke-width="1.5"/>
  <!-- QR pattern (simplified) -->
  <rect x="60" y="52" width="20" height="20" rx="2" fill="#0A0F1E"/>
  <rect x="64" y="56" width="12" height="12" rx="1" fill="#1E293B"/>
  <rect x="68" y="60" width="4" height="4" fill="#0A0F1E"/>
  <rect x="60" y="78" width="8" height="8" rx="1" fill="#0A0F1E"/>
  <rect x="72" y="78" width="8" height="8" rx="1" fill="#0A0F1E"/>
  <rect x="84" y="52" width="20" height="20" rx="2" fill="#0A0F1E"/>
  <rect x="88" y="56" width="12" height="12" rx="1" fill="#1E293B"/>
  <rect x="92" y="60" width="4" height="4" fill="#0A0F1E"/>
  <rect x="84" y="78" width="4" height="4" rx="1" fill="#0A0F1E"/>
  <rect x="92" y="78" width="4" height="4" rx="1" fill="#0A0F1E"/>
  <rect x="60" y="90" width="20" height="20" rx="2" fill="#0A0F1E"/>
  <rect x="64" y="94" width="12" height="12" rx="1" fill="#1E293B"/>
  <rect x="68" y="98" width="4" height="4" fill="#0A0F1E"/>
  <rect x="84" y="90" width="8" height="4" rx="1" fill="#0A0F1E"/>
  <rect x="84" y="98" width="4" height="4" rx="1" fill="#0A0F1E"/>
  <rect x="92" y="94" width="8" height="8" rx="1" fill="#0A0F1E"/>

  <!-- Scan label -->
  <text x="96" y="148" font-family="system-ui,sans-serif" font-size="9" fill="#94A3B8" text-anchor="middle">Scan to navigate</text>

  <!-- Arrow connecting QR to phone -->
  <path d="M148 88 L170 88" stroke="#334155" stroke-width="1.5" stroke-dasharray="4,3"/>
  <path d="M166 84 L170 88 L166 92" stroke="#334155" stroke-width="1.5" stroke-linecap="round" stroke-linejoin="round" fill="none"/>

  <!-- Phone -->
  <rect x="174" y="40" width="56" height="96" rx="10" fill="#1E293B" stroke="#334155" stroke-width="1.5"/>
  <rect x="178" y="52" width="48" height="74" rx="4" fill="#162032"/>
  <!-- Map on phone screen -->
  <rect x="182" y="56" width="40" height="42" rx="3" fill="#1E293B"/>
  <line x1="182" y1="70" x2="222" y2="70" stroke="#334155" stroke-width="1"/>
  <line x1="202" y1="56" x2="202" y2="98" stroke="#334155" stroke-width="1"/>
  <path d="M186 88 L186 72 L202 72 L202 64" stroke="#13B7DA" stroke-width="2" stroke-dasharray="3,2" fill="none" stroke-linecap="round"/>
  <circle cx="186" cy="88" r="3" fill="#13B7DA"/>
  <circle cx="202" cy="64" r="4" fill="#0A0F1E"/>
  <circle cx="202" cy="64" r="2" fill="#13B7DA"/>
  <!-- "Turn left" chip on phone -->
  <rect x="182" y="102" width="40" height="16" rx="8" fill="#0A0F1E"/>
  <text x="202" y="113" font-family="system-ui,sans-serif" font-size="7" fill="white" text-anchor="middle" font-weight="600">← Turn left</text>
  <!-- Home indicator -->
  <rect x="196" y="128" width="16" height="3" rx="1.5" fill="#334155"/>

  <!-- Live badge -->
  <rect x="248" y="64" width="44" height="22" rx="11" fill="#0A0F1E"/>
  <circle cx="260" cy="75" r="3" fill="#13B7DA"/>
  <text x="268" y="79" font-family="system-ui,sans-serif" font-size="8" fill="white" font-weight="600">LIVE</text>
</svg>
