<svg xmlns="http://www.w3.org/2000/svg" fill="none" viewBox="0 0 320 200"><rect width="320" height="200" fill="#FFD6A5" rx="0"/><rect width="116" height="152" x="64" y="22" fill="#fff" rx="14"/><path fill="#FFD6A5" d="M160 22 L180 22 L180 42 Z" opacity=".6"/><path fill="none" stroke="#FFD6A5" stroke-width="1.5" d="M160 22 L160 42 L180 42"/><rect width="38" height="28" x="78" y="38" fill="#FDFFB6" rx="4"/><rect width="28" height="28" x="122" y="38" fill="#CAFFBF" rx="4"/><rect width="72" height="14" x="78" y="72" fill="#FDFFB6" rx="4"/><rect width="38" height="16" x="78" y="92" fill="#CAFFBF" rx="4"/><rect width="28" height="16" x="122" y="92" fill="#FDFFB6" rx="4"/><rect width="72" height="30" x="78" y="114" fill="#FFADAD" opacity=".5" rx="4"/><rect width="72" height="14" x="78" y="72" fill="#13B7DA" opacity=".2" rx="4"/><circle cx="238" cy="88" r="38" fill="#fff" opacity=".7"/><circle cx="238" cy="88" r="28" fill="#fff"/><path stroke="#13B7DA" stroke-linecap="round" stroke-width="3.5" d="M238 104 L238 74"/><path fill="none" stroke="#13B7DA" stroke-linecap="round" stroke-linejoin="round" stroke-width="3.5" d="M227 84 L238 74 L249 84"/><line x1="225" x2="251" y1="106" y2="106" stroke="#13B7DA" stroke-linecap="round" stroke-width="3.5"/><path fill="none" stroke="#13B7DA" stroke-dasharray="5 4" stroke-linecap="round" stroke-width="2" d="M180 88 Q208 88 210 88"/><circle cx="198" cy="148" r="5" fill="#CAFFBF"/><circle cx="214" cy="136" r="4" fill="#CAFFBF" opacity=".75"/><circle cx="226" cy="150" r="3" fill="#CAFFBF" opacity=".5"/></svg>