<svg xmlns="http://www.w3.org/2000/svg" viewBox="0 0 320 200" fill="none">
  <!-- Background -->
  <rect width="320" height="200" fill="#FDFFB6"/>
  <!-- Dashboard card -->
  <rect x="30" y="20" width="260" height="160" rx="16" fill="white"/>
  <!-- Top bar -->
  <rect x="30" y="20" width="260" height="32" rx="16" fill="#13B7DA"/>
  <rect x="30" y="36" width="260" height="16" fill="#13B7DA"/>
  <circle cx="52" cy="36" r="6" fill="white" opacity="0.4"/>
  <circle cx="70" cy="36" r="6" fill="white" opacity="0.4"/>
  <circle cx="88" cy="36" r="6" fill="white" opacity="0.4"/>
  <!-- Toggle rows -->
  <rect x="46" y="64" width="80" height="10" rx="5" fill="#e2e8f0"/>
  <rect x="46" y="64" width="48" height="10" rx="5" fill="#13B7DA"/>
  <rect x="46" y="82" width="80" height="10" rx="5" fill="#e2e8f0"/>
  <rect x="46" y="82" width="62" height="10" rx="5" fill="#CAFFBF"/>
  <rect x="46" y="100" width="80" height="10" rx="5" fill="#e2e8f0"/>
  <rect x="46" y="100" width="30" height="10" rx="5" fill="#FFD6A5"/>
  <!-- Color swatches -->
  <circle cx="172" cy="69" r="10" fill="#FFADAD"/>
  <circle cx="194" cy="69" r="10" fill="#FFD6A5"/>
  <circle cx="216" cy="69" r="10" fill="#FDFFB6"/>
  <circle cx="238" cy="69" r="10" fill="#CAFFBF"/>
  <circle cx="260" cy="69" r="10" fill="#13B7DA"/>
  <circle cx="238" cy="69" r="12" fill="none" stroke="#0F172A" stroke-width="2"/>
  <!-- Preview map -->
  <rect x="166" y="86" width="108" height="72" rx="10" fill="#f8fafc"/>
  <rect x="178" y="96" width="36" height="28" rx="4" fill="#CAFFBF"/>
  <rect x="220" y="96" width="42" height="28" rx="4" fill="#FDFFB6"/>
  <rect x="178" y="130" width="84" height="20" rx="4" fill="#FFD6A5"/>
  <path d="M196 132 L196 110 L228 110" stroke="#13B7DA" stroke-width="2.5" stroke-dasharray="5,3" stroke-linecap="round" stroke-linejoin="round" fill="none"/>
  <circle cx="196" cy="132" r="5" fill="#13B7DA"/>
  <!-- Check mark badge -->
  <circle cx="270" cy="152" r="14" fill="#CAFFBF"/>
  <path d="M264 152 L268 156 L276 146" stroke="#166534" stroke-width="2.5" stroke-linecap="round" stroke-linejoin="round" fill="none"/>
</svg>
