<svg xmlns="http://www.w3.org/2000/svg" width="320" height="200" viewBox="0 0 320 200" fill="none">
  <!-- Background -->
  <rect width="320" height="200" rx="16" fill="#F8FAFC"/>

  <!-- Dashboard card -->
  <rect x="44" y="30" width="232" height="140" rx="10" fill="white" stroke="#E2E8F0" stroke-width="1.5"/>
  <!-- Header bar -->
  <rect x="44" y="30" width="232" height="34" rx="10" fill="#0A0F1E"/>
  <rect x="44" y="52" width="232" height="12" fill="#0A0F1E"/>
  <!-- Traffic lights -->
  <circle cx="64" cy="47" r="5" fill="#64748B" opacity="0.5"/>
  <circle cx="80" cy="47" r="5" fill="#64748B" opacity="0.35"/>
  <circle cx="96" cy="47" r="5" fill="#64748B" opacity="0.2"/>
  <!-- Title -->
  <rect x="116" y="42" width="80" height="8" rx="4" fill="#334155" opacity="0.5"/>

  <!-- Toggle switches row -->
  <rect x="60" y="76" width="52" height="16" rx="8" fill="#E2E8F0"/>
  <circle cx="104" cy="84" r="6" fill="white" stroke="#CBD5E1" stroke-width="1"/>
  <text x="60" y="108" font-family="system-ui,sans-serif" font-size="8" fill="#94A3B8">Accessible routes</text>

  <rect x="136" y="76" width="52" height="16" rx="8" fill="#13B7DA"/>
  <circle cx="181" cy="84" r="6" fill="white"/>
  <text x="136" y="108" font-family="system-ui,sans-serif" font-size="8" fill="#94A3B8">Multilingual</text>

  <!-- Colour swatch row (branding) -->
  <circle cx="64" cy="128" r="8" fill="#0A0F1E"/>
  <circle cx="84" cy="128" r="8" fill="#13B7DA"/>
  <circle cx="104" cy="128" r="8" fill="#F1F5F9"/>
  <circle cx="104" cy="128" r="8" fill="none" stroke="#CBD5E1" stroke-width="1"/>
  <text x="120" y="132" font-family="system-ui,sans-serif" font-size="8" fill="#94A3B8">Brand colors</text>

  <!-- Check badge -->
  <circle cx="248" cy="155" r="14" fill="#13B7DA" opacity="0.12"/>
  <path d="M240 155 L246 161 L256 149" stroke="#13B7DA" stroke-width="2.5" stroke-linecap="round" stroke-linejoin="round"/>
</svg>
