<svg xmlns="http://www.w3.org/2000/svg" viewBox="0 0 320 200" fill="none">
  <circle cx="160" cy="100" r="82" fill="#D6F0F8"/>
  <!-- QR card -->
  <rect x="44" y="32" width="100" height="132" rx="14" fill="white"/>
  <rect x="58" y="46" width="72" height="72" rx="4" fill="#F8FBFD"/>
  <!-- QR corner patterns -->
  <rect x="62" y="50" width="20" height="20" rx="2" fill="#0F172A"/>
  <rect x="66" y="54" width="12" height="12" rx="1" fill="white"/>
  <circle cx="72" cy="60" r="3.5" fill="#0F172A"/>
  <rect x="98" y="50" width="20" height="20" rx="2" fill="#0F172A"/>
  <rect x="102" y="54" width="12" height="12" rx="1" fill="white"/>
  <circle cx="108" cy="60" r="3.5" fill="#0F172A"/>
  <rect x="62" y="86" width="20" height="20" rx="2" fill="#0F172A"/>
  <rect x="66" y="90" width="12" height="12" rx="1" fill="white"/>
  <circle cx="72" cy="96" r="3.5" fill="#0F172A"/>
  <!-- QR data -->
  <rect x="98" y="86" width="7" height="7" rx="1" fill="#0F172A"/>
  <rect x="110" y="86" width="7" height="7" rx="1" fill="#0F172A"/>
  <rect x="98" y="98" width="7" height="7" rx="1" fill="#0F172A"/>
  <rect x="110" y="98" width="7" height="7" rx="1" fill="#0F172A"/>
  <rect x="104" y="92" width="7" height="7" rx="1" fill="#13B7DA"/>
  <!-- Label -->
  <rect x="62" y="128" width="72" height="16" rx="8" fill="#F1F5F9"/>
  <rect x="70" y="133" width="56" height="6" rx="3" fill="#E2E8F0"/>
  <!-- Arrow -->
  <path d="M156 100 L178 100" stroke="#13B7DA" stroke-width="3" stroke-linecap="round"/>
  <path d="M173 93 L180 100 L173 107" stroke="#13B7DA" stroke-width="3" stroke-linecap="round" stroke-linejoin="round" fill="none"/>
  <!-- Phone -->
  <rect x="188" y="36" width="72" height="124" rx="14" fill="white"/>
  <rect x="192" y="40" width="64" height="116" rx="11" fill="#F8FBFC"/>
  <!-- Map on phone -->
  <rect x="198" y="56" width="52" height="44" rx="6" fill="#E2F4F8"/>
  <rect x="202" y="60" width="18" height="14" rx="2" fill="white"/>
  <rect x="226" y="60" width="20" height="14" rx="2" fill="white"/>
  <rect x="202" y="78" width="44" height="10" rx="2" fill="white"/>
  <path d="M210 88 L210 74 L224 74" stroke="#13B7DA" stroke-width="1.5" stroke-dasharray="4,3" stroke-linecap="round" stroke-linejoin="round" fill="none"/>
  <circle cx="210" cy="88" r="2.5" fill="#FCD34D"/>
  <circle cx="224" cy="74" r="3" fill="#13B7DA"/>
  <!-- Turn directions row -->
  <rect x="200" y="108" width="16" height="16" rx="4" fill="#13B7DA"/>
  <path d="M205 116 L208 112 L211 116" stroke="white" stroke-width="1.5" fill="none" stroke-linecap="round" stroke-linejoin="round"/>
  <rect x="222" y="110" width="24" height="5" rx="2.5" fill="#E2E8F0"/>
  <rect x="222" y="118" width="18" height="4" rx="2" fill="#E2E8F0"/>
  <!-- Home bar -->
  <rect x="218" y="146" width="20" height="4" rx="2" fill="#CBD5E1"/>
  <!-- Live badge -->
  <rect x="256" y="32" width="44" height="22" rx="11" fill="#34D399"/>
  <circle cx="271" cy="43" r="5" fill="white"/>
  <rect x="280" y="40" width="14" height="6" rx="3" fill="white" opacity="0.8"/>
</svg>
