<svg xmlns="http://www.w3.org/2000/svg" fill="none" viewBox="0 0 320 200"><rect width="320" height="200" fill="#CAFFBF"/><rect width="148" height="152" x="34" y="20" fill="#fff" rx="16"/><rect width="50" height="44" x="50" y="36" fill="#FDFFB6" rx="6"/><rect width="58" height="44" x="108" y="36" fill="#FFD6A5" rx="6"/><rect width="116" height="28" x="50" y="88" fill="#FFADAD" opacity=".5" rx="6"/><rect width="50" height="36" x="50" y="122" fill="#CAFFBF" opacity=".7" rx="6"/><rect width="58" height="36" x="108" y="122" fill="#FDFFB6" rx="6"/><path stroke="#13B7DA" stroke-dasharray="7 5" stroke-linecap="round" stroke-linejoin="round" stroke-width="3" d="M74 158 L74 102 L140 102 L140 58"/><circle cx="74" cy="158" r="8" fill="#FFADAD" stroke="#fff" stroke-width="2.5"/><path fill="#13B7DA" d="M140 58 C140 46 150 38 162 38 C174 38 184 46 184 58 C184 70 162 84 162 84 Z"/><circle cx="162" cy="57" r="7" fill="#fff"/><circle cx="258" cy="68" r="30" fill="#FFD6A5"/><circle cx="258" cy="58" r="15" fill="#FFADAD"/><path fill="#FFADAD" d="M242 98 Q242 83 258 83 Q274 83 274 98"/><rect width="20" height="30" x="269" y="72" fill="#fff" rx="5"/><rect width="14" height="20" x="272" y="76" fill="#13B7DA" opacity=".15" rx="3"/><circle cx="275" cy="83" r="3" fill="#13B7DA"/><path fill="none" stroke="#13B7DA" stroke-linecap="round" stroke-linejoin="round" stroke-width="1.5" d="M273 91 L279 86 L285 90"/><rect width="40" height="18" x="226" y="38" fill="#13B7DA" rx="9"/><circle cx="234" cy="47" r="3" fill="#fff" opacity=".8"/><rect width="18" height="8" x="240" y="43" fill="#fff" opacity=".9" rx="2"/></svg>