<svg xmlns="http://www.w3.org/2000/svg" viewBox="0 0 320 200" fill="none">
  <circle cx="160" cy="100" r="82" fill="#D6F0F8"/>
  <!-- Dashboard card -->
  <rect x="36" y="28" width="248" height="152" rx="16" fill="white"/>
  <rect x="36" y="28" width="248" height="32" rx="16" fill="#F8FBFC"/>
  <rect x="36" y="44" width="248" height="16" fill="#F8FBFC"/>
  <circle cx="56" cy="44" r="5" fill="#E2E8F0"/>
  <circle cx="74" cy="44" r="5" fill="#E2E8F0"/>
  <circle cx="92" cy="44" r="5" fill="#E2E8F0"/>
  <!-- Left sidebar -->
  <rect x="52" y="72" width="64" height="8" rx="4" fill="#E2E8F0"/>
  <rect x="48" y="84" width="72" height="20" rx="6" fill="#13B7DA" opacity="0.12"/>
  <rect x="52" y="89" width="48" height="8" rx="4" fill="#13B7DA" opacity="0.7"/>
  <rect x="52" y="110" width="56" height="8" rx="4" fill="#E2E8F0"/>
  <rect x="52" y="126" width="44" height="8" rx="4" fill="#E2E8F0"/>
  <rect x="52" y="142" width="52" height="8" rx="4" fill="#E2E8F0"/>
  <!-- Divider -->
  <line x1="136" y1="64" x2="136" y2="170" stroke="#F1F5F9" stroke-width="2"/>
  <!-- Toggle on -->
  <rect x="152" y="72" width="44" height="20" rx="10" fill="#13B7DA"/>
  <circle cx="186" cy="82" r="8" fill="white"/>
  <rect x="204" y="78" width="60" height="8" rx="4" fill="#E2E8F0"/>
  <!-- Toggle off -->
  <rect x="152" y="102" width="44" height="20" rx="10" fill="#E2E8F0"/>
  <circle cx="162" cy="112" r="8" fill="white"/>
  <rect x="204" y="108" width="48" height="8" rx="4" fill="#E2E8F0"/>
  <!-- Slider -->
  <rect x="152" y="136" width="100" height="6" rx="3" fill="#E2E8F0"/>
  <rect x="152" y="136" width="60" height="6" rx="3" fill="#13B7DA"/>
  <circle cx="212" cy="139" r="8" fill="#13B7DA" stroke="white" stroke-width="2"/>
  <!-- Save button -->
  <rect x="152" y="156" width="80" height="22" rx="8" fill="#13B7DA"/>
  <rect x="162" y="163" width="44" height="7" rx="3.5" fill="white" opacity="0.8"/>
</svg>
